<svg width="45" height="45" viewBox="0 0 45 45" fill="none" xmlns="http://www.w3.org/2000/svg">
<rect width="45" height="45" rx="22.5" fill="#15151D"/>
<path opacity="0.3" fill-rule="evenodd" clip-rule="evenodd" d="M23.2617 26.2916L26.4716 21.9583H24.0642V17.625L19.2493 24.125H21.6568V26.2916H15.9993C15.401 26.2916 14.916 25.8066 14.916 25.2083V14.375C14.916 13.7767 15.401 13.2916 15.9993 13.2916H28.9993C29.5977 13.2916 30.0827 13.7767 30.0827 14.375V25.2083C30.0827 25.8066 29.5977 26.2916 28.9993 26.2916H23.2617Z" fill="#E7E9F7"/>
<path fill-rule="evenodd" clip-rule="evenodd" d="M20.1213 22.9486L19.25 24.1249H21.6574V28.4583L26.4722 21.9583H26.25L31.3912 18.2452C31.6337 18.07 31.9723 18.1246 32.1475 18.3671C32.2141 18.4595 32.25 18.5704 32.25 18.6843V29.5416C32.25 30.7382 31.28 31.7083 30.0833 31.7083H14.9167C13.72 31.7083 12.75 30.7382 12.75 29.5416V18.6843C12.75 18.3851 12.9925 18.1426 13.2917 18.1426C13.4055 18.1426 13.5165 18.1785 13.6088 18.2452L20.1213 22.9486Z" fill="#E7E9F7"/>
</svg>
